/* XPM */
static const char *xpm_apple[] = {
/* columns rows colors chars-per-pixel */
"48 48 121 2 ",
"   c white",
".  c #010101",
"X  c #0D0D0D",
"o  c #0C0C13",
"O  c #141414",
"+  c #1B1B1B",
"@  c #201616",
"#  c #2C1616",
"$  c #162016",
"%  c #162C16",
"&  c #161620",
"*  c #191925",
"=  c #1C1C2B",
"-  c #162020",
";  c #232323",
":  c #2B2B2B",
">  c #202031",
",  c #343434",
"<  c #3C3C3C",
"1  c #433E3E",
"2  c #2C412C",
"3  c #364136",
"4  c #2F2F49",
"5  c #32324C",
"6  c #363652",
"7  c #383856",
"8  c #3C3C5C",
"9  c #412C41",
"0  c #434343",
"q  c #4B4B4B",
"w  c #505050",
"e  c #5B5B5B",
"r  c #5F6C5F",
"t  c #414163",
"y  c #464669",
"u  c #49496E",
"i  c #4D4D74",
"p  c #505077",
"a  c #52527B",
"s  c #655B65",
"d  c #646464",
"f  c #656A65",
"g  c #6C6C6C",
"h  c #747474",
"j  c #7C7C7C",
"k  c #800B01",
"l  c #39802C",
"z  c #848484",
"x  c #8C8787",
"c  c #818A81",
"v  c #8A808A",
"b  c #8B8B8B",
"n  c #939393",
"m  c #9B969B",
"M  c #9E9E9E",
"N  c #95AA95",
"B  c #AA95AA",
"V  c #A3A3A3",
"C  c #A5A5A5",
"Z  c #A5A5A5",
"A  c #A8A8A8",
"S  c #A9A9A9",
"D  c gray68",
"F  c #AEAEAE",
"G  c #ADADAD",
"H  c #B1B1B1",
"J  c #B3B3B3",
"K  c #B7B7B7",
"L  c #B4B4B4",
"P  c gray72",
"I  c #BBBBBB",
"U  c #B9BEBE",
"Y  c #BCBCBC",
"T  c #BDBDBD",
"R  c #BABABA",
"E  c #C0C0C0",
"W  c #C1C1C1",
"Q  c #C3C3C3",
"!  c #C5C5C5",
"~  c #C5C5C5",
"^  c #C8C8C8",
"/  c #CACACA",
"(  c #CBCBCB",
")  c #CDCDCD",
"_  c #CACACA",
"`  c #D0D0D0",
"'  c #D2D2D2",
"]  c #D4D4D4",
"[  c #DADADA",
"{  c #DBDBDB",
"}  c #DCDCDC",
"|  c #DEDEDE",
" . c #DFDFDF",
".. c #DADADA",
"X. c #E1DCE1",
"o. c #E0E0E0",
"O. c #E1E1E1",
"+. c #E3E3E3",
"@. c #E4E4E4",
"#. c #E5E5E5",
"$. c #E6E6E6",
"%. c gray91",
"&. c #E9E9E9",
"*. c #EAEAEA",
"=. c #EBEBEB",
"-. c gray93",
";. c #EEEEEE",
":. c #EFEFEF",
">. c #EAEAEA",
",. c #F4E9F4",
"<. c #F8EDF8",
"1. c #F0F0F0",
"2. c #F4F4F4",
"3. c #F5F5F5",
"4. c #F3F3F3",
"5. c #F8F8F8",
"6. c #F9F9F9",
"7. c #FDFDFD",
"8. c #FEFEFE",
"9. c white",
"0. c #FFFFFF",
/* pixels */
"            9.9.9.9.9.9.9.9.9.9.9.9.9.9.9.9.*.} ' / T F C M n b z j h h g g g g g ;             ",
"            9.9.9.9.9.9.9.9.9.9.9.9.9.9.9.9.9.9.6.2.1.*.*.$.o.o.} } [ [ [ [ [ [ [ <             ",
"            9.9.9.9.9.9.9.9.9.9.9.9.9.9.9.9.9.9.6.2.1.*.*.$.o.o.} } [ [ [ [ [ [ [ <             ",
"            9.! ! Q T K F C M m n n n n b b b z z j j j j j j h h h j z n M S J J <             ",
"            9.N M M . . . . . . . . . . . . . . . . . . . . . . . . . . . c 9.9.9.<             ",
"            9.M M M * 4 4 5 5 5 6 6 7 8 8 8 8 t t t 8 8 8 8 7 6 6 5 5 4 4 z 9.9.9.<             ",
"            9.M M M * 4 4 5 5 5 6 6 7 8 8 8 t t t t t 8 8 8 8 6 6 6 5 5 4 z 9.9.9.,             ",
"            9.M M M * 4 5 5 5 6 6 7 8 8 8 t t t t t t t t 8 8 7 6 6 5 5 5 z 9.9.9.,             ",
"            9.M M M * 5 5 5 6 6 7 8 8 t t t y y y y y y t t 8 8 7 7 6 5 5 z 9.9.9.,             ",
"            9.B M M * 5 6 6 6 7 8 8 t t y y u u i u u u y y t 8 8 8 6 6 6 v 9.9.9.,             ",
"            9.N M M = 5 6 6 6 7 8 8 t t y u i i i i i u u y t t 8 8 7 6 6 c 9.9.9.:             ",
"            9.B M M = 6 6 6 7 8 8 t t y u i i p p p i i i u y t t 8 7 7 6 v 9.9.9.:             ",
"            9.M M M = 6 6 7 8 8 8 t t y i i p p p p p i i i y t t 8 8 7 7 z 9.9.9.:             ",
"            9.B M M = 6 7 7 8 8 t t y u i p p a a a a p i i u y t t 8 8 7 v 9.9.9.:             ",
"            9.N M M = 6 7 7 8 8 t t y u i p a a a a a p p i u y t t 8 8 7 c 9.9.9.;             ",
"            2.M M M = 6 7 7 8 8 t t y u i p a a a a a p p i u y t t 8 8 7 z 9.9.9.;             ",
"            -.N M M = 6 7 7 8 8 t t y u i i p a a a a p p i u y t t 8 8 7 c 9.9.9.;             ",
"            $.B M M = 6 7 7 8 8 t t y y i i p p a a p p i i u y t t 8 7 7 v 9.9.9.+             ",
"            o.N M M = 6 6 7 8 8 8 t t y u i i p p p p i i u y t t 8 8 7 7 c 9.9.9.+             ",
"            [ M M M = 6 6 6 7 7 8 8 t t y u i i i i i i u u t t 8 8 7 6 6 z 9.9.9.+             ",
"            ' M M M * 5 5 6 6 7 8 8 8 t t y u u u u u y y t t 8 8 7 6 6 5 z 9.9.9.+             ",
"            ' M M M * 5 5 5 6 6 7 8 8 t t t y y y y y y t t 8 8 7 7 6 5 5 z 9.9.9.+             ",
"            ) M M M * 5 5 5 5 6 6 7 8 8 t t t y y y t t t t 8 8 7 6 5 5 5 z 9.9.9.O             ",
"            / B M M * 4 5 5 5 5 6 7 8 8 8 t t t t t t t 8 8 8 7 6 6 5 5 5 v 9.9.9.O             ",
"            / M M M o * * * * = = = = = = = > > > > > = = = = = = = * * * z 9.9.9.O             ",
"            / ,.-.-.M m n n b z z j h g g g d d d d d g g g h j z z n n m X.9.9.9.O             ",
"            / 9.9.9.9.9.9.9.9.9.9.9.9.6.1.-.$.o.} } } } o.o.$.*.1.2.9.9.9.9.9.9.<.O             ",
"            / 9.9.9.9.9.9.9.9.9.9.9.9.9.9.9.9.9.6.2.1.*.*.*.o.o.} } [ [ [ [ [ [ [ O             ",
"            U 9.9.9.9.9.9.9.9.9.9.9.9.9.9.9.9.9.6.2.1.*.*.$.o.o.} } [ [ [ [ [ [ [ O             ",
"          X , 0 0 0 0 0 0 0 0 < < < , , , : : : ; ; + + + + + O O O O O O O O O O q             ",
"                  m b n b n b b z z j j h g e w q 0 < , : ; ; + + + O O O O O                   ",
"                    / Q Q Q T P P J S V n b j d e w 6 , : ; + O O X X X X .                     ",
"                              , 9 2 , , 2 9 # O O @ O O @ @ O X . .                             ",
"                                2 0 , , 0 2 % O & - O & - $ . . . .                             ",
"                                    x g r s 0 1 < , ; + + O O 0                                 ",
"                  ! / / / / / ! Q Q T P J F C M m n b z z j j h f f h h h j r                   ",
"                  ; 3 3 9 2 3 , 2 0 , , 0 2 2 3 , , 0 , , 3 2 , 3 3 , 0 2 , 3                   ",
"    9.9.9.9.9.9.9.9.9.9.9.9.9.9.9.9.9.9.9.9.9.9.9.9.9.9.9.9.9.9.9.9.9.9.9.9.9.9.9.9.9.9.9.9.    ",
"  9.} [ [ [ [ [ [ [ [ ' ' h / ! Q Q T P K F F C C M m n n b b z z h j j j j h h h h h h h h 0   ",
"  9.[ [ [ [ [ [ [ [ [ ' ' h / ! Q Q T P K F F C V M m n n b b z z h j j j j j h h h h h h h <   ",
"  9.[ [ [ [ [ [ [ [ ' ' ) d / e d d d d d d d d d d d d d d b z z d j j j h d q q d h h h h ,   ",
"  9.[ [ [ l l [ [ [ ' ' ) q / e Q T T P K F F C V M m n n b 1.z z w j : : : : : : : : : : h :   ",
"  9.[ [ [ k k [ [ [ ' ' ' < / ! ! ! ! ! ! ! ! ! ^ ! / / ! ! 1.z z < j j j j d q q d h h h h +   ",
"  9.[ [ [ [ [ [ [ [ ' ' ' : / ! Q Q Y P K F F C V M m n n b b z z : j j j h j h h h h h h h O   ",
"  1.} [ g g g g [ [ [ ' ' ; / ! Q Q T P K F F A V M m n b b b z z ; j j j h h h h h h h h h X   ",
"  *.} } [ [ [ [ [ [ [ ' ' + / ! Q Q T P K F F A V M m n b b b z z + j j j h h h h h h h h h .   ",
"  *.; ; ; ; ; ; ; ; ; ; ; ; ; ; ; ; ; ; ; ; ; ; ; ; ; ; ; ; ; ; ; ; ; ; ; ; ; ; ; ; ; ; ; ; .   ",
"      , , , , , , , , , , , : : : : : : : ; ; ; ; ; + + + + + O O O O O O O X O O O X X X X     "
};
