/* XPM */
static const char *_ibm[] = {
/* columns rows colors chars-per-pixel */
"48 48 251 2 ",
"   c white",
".  c black",
"X  c #010101",
"o  c #020202",
"O  c #030303",
"+  c #040404",
"@  c #050505",
"#  c #060606",
"$  c #070707",
"%  c #080808",
"&  c #090909",
"*  c #0A0A0A",
"=  c #0B0B0B",
"-  c #0C0C0C",
";  c #0D0D0D",
":  c #0E0E0E",
">  c #0F0F0F",
",  c #101010",
"<  c #111111",
"1  c #121212",
"2  c #131313",
"3  c #141414",
"4  c #151514",
"5  c #151515",
"6  c #161616",
"7  c #171717",
"8  c #12121B",
"9  c #16161C",
"0  c #181818",
"q  c #191919",
"w  c #1A1A1A",
"e  c #1B1B1B",
"r  c #1C1C1C",
"t  c #1D1D1D",
"y  c #1E1E1E",
"u  c #1F1F1F",
"i  c #171725",
"p  c #181825",
"a  c #181826",
"s  c #191927",
"d  c #191928",
"f  c #1A1A28",
"g  c #1A1A29",
"h  c #1B1B2A",
"j  c #1C1C2B",
"k  c #1C1C2C",
"l  c #1D1D2D",
"z  c #1D1D2E",
"x  c #1E1E2E",
"c  c #1F1F2F",
"v  c #1F1F30",
"b  c #202020",
"n  c #212121",
"m  c #222222",
"M  c #232323",
"N  c #242424",
"B  c #252525",
"V  c #262626",
"C  c #272727",
"Z  c #282828",
"A  c #292929",
"S  c #2A2A2A",
"D  c #2B2B2B",
"F  c #2C2C2C",
"G  c #2D2D2D",
"H  c #2E2E2E",
"J  c #2F2F2F",
"K  c #202031",
"L  c #202032",
"P  c #212132",
"I  c #212133",
"U  c #222234",
"Y  c #232335",
"T  c #232336",
"R  c #242436",
"E  c #242437",
"W  c #252538",
"Q  c #262639",
"!  c #26263A",
"~  c #27273B",
"^  c #27273C",
"/  c #28283C",
"(  c #28283D",
")  c #29293D",
"_  c #29293E",
"`  c #303030",
"'  c #313131",
"]  c #323232",
"[  c #333333",
"{  c #343434",
"}  c #353535",
"|  c #363636",
" . c #373737",
".. c #383838",
"X. c #393939",
"o. c #3A3A3A",
"O. c #3B3B3B",
"+. c #3D3D3D",
"@. c #3E3E3E",
"#. c #3F3F3F",
"$. c #2F2F4A",
"%. c #2F2F4B",
"&. c #30304B",
"*. c #30304C",
"=. c #31314C",
"-. c #31314D",
";. c #31314E",
":. c #32324E",
">. c #32324F",
",. c #33334F",
"<. c #333350",
"1. c #343451",
"2. c #343452",
"3. c #353552",
"4. c #353553",
"5. c #363653",
"6. c #353554",
"7. c #363654",
"8. c #363655",
"9. c #373755",
"0. c #373756",
"q. c #383857",
"w. c #383858",
"e. c #393958",
"r. c #393959",
"t. c #3A3A59",
"y. c #3A3A5A",
"u. c #3A3A5B",
"i. c #3B3B5B",
"p. c #3B3B5C",
"a. c #3C3C5C",
"s. c #3C3C5D",
"d. c #3C3C5E",
"f. c #3D3D5E",
"g. c #3D3D5F",
"h. c #3E3E5F",
"j. c #3E3E60",
"k. c #3F3F61",
"l. c #3F3F62",
"z. c #404040",
"x. c #424242",
"c. c #434343",
"v. c #444444",
"b. c #464646",
"n. c #474747",
"m. c #484848",
"M. c #494949",
"N. c #4A4A4A",
"B. c #4B4B4B",
"V. c #4C4C4C",
"C. c #4D4D4D",
"Z. c #4E4E4E",
"A. c #4F4F4F",
"S. c #525252",
"D. c #545454",
"F. c #555555",
"G. c #565656",
"H. c #585858",
"J. c #595959",
"K. c #5A5A5A",
"L. c #5B5B5B",
"P. c #5C5C5C",
"I. c #5D5D5D",
"U. c #5E5E5E",
"Y. c #5F5F5F",
"T. c #404062",
"R. c #404063",
"E. c #414163",
"W. c #414164",
"Q. c #414165",
"!. c #424265",
"~. c #424266",
"^. c #434366",
"/. c #434367",
"(. c #444467",
"). c #444468",
"_. c #444469",
"`. c #454569",
"'. c #45456A",
"]. c #46466A",
"[. c #46466B",
"{. c #47476C",
"}. c #47476D",
"|. c #48486D",
" X c #48486E",
".X c #49496E",
"XX c #49496F",
"oX c #494970",
"OX c #4A4A70",
"+X c #4A4A71",
"@X c #4B4B71",
"#X c #4B4B72",
"$X c #4C4C72",
"%X c #4C4C73",
"&X c #4C4C74",
"*X c #4D4D74",
"=X c #4D4D75",
"-X c #4E4E75",
";X c #4E4E76",
":X c #4F4F77",
">X c #4F4F78",
",X c #505078",
"<X c #505079",
"1X c #515179",
"2X c #51517A",
"3X c #51517B",
"4X c #52527B",
"5X c #52527C",
"6X c #53537C",
"7X c #53537D",
"8X c #606060",
"9X c #616161",
"0X c #626262",
"qX c #636363",
"wX c #646464",
"eX c #656565",
"rX c #666666",
"tX c #676767",
"yX c #686868",
"uX c #696969",
"iX c #6B6B6B",
"pX c #6E6E6E",
"aX c #707070",
"sX c #747474",
"dX c #777777",
"fX c #7A7A7A",
"gX c #7B7B7B",
"hX c #7C7C7C",
"jX c #7D7D7D",
"kX c #800B01",
"lX c #39802C",
"zX c #818181",
"xX c #838383",
"cX c #848484",
"vX c #858585",
"bX c #868686",
"nX c #878787",
"mX c #8C8C8C",
"MX c #9A9A9A",
"NX c #A8A8A8",
"BX c #B5B5B5",
"VX c #C0C0C0",
"CX c #C3C3C3",
"ZX c #C9C9C9",
"AX c gray82",
"SX c #D8D8D8",
"DX c #DDDDDD",
"FX c gray88",
"GX c #E3E3E3",
"HX c #E4E4E4",
"JX c gray90",
/* pixels */
"                                                                                                ",
"                                                                                                ",
"          CXbXbXbXbXbXxXxXxXjXgXsXsXaXiXrX8XK.D.Z.m.x.+...[ J J D B B M M M r r r r .           ",
"        JXB e 1 1 1 1 1 1 1 1 1 1 4 4 4 4 4 4 e e e e r r r r r r r r r r r r r r 1 +           ",
"        JXB . . . . . . . . . . . . . + + + & & & & - - - 1 1 1 1 1 1 4 4 4 3 3 [ m.&           ",
"        JXB . _ 7X7X7X7X7X4X4X4X4X>X4X:X:X$X@X X X{._._./././.T.k.f.f.f.p.i.i.i.+.m.&           ",
"        GXB . _ 7X7X7X7X7X4X4X4X4X>X:X:X$X@X@X X X_._._././.T.k.k.f.f.p.i.i.i.i.+.m.&           ",
"        GXB . _ 7X7X7X7X4X4X4X4X4X>X:X:X$X@X@X X{._._././.T.k.k.f.f.p.i.i.i.i.q.+.v.&           ",
"        DXB . _ 7X7X7X7X4X4X4X4X>X:X:X:X@X@X@X X_._._././.T.k.f.f.p.i.i.i.q.q.0.+.v.&           ",
"        SXB . _ 7X7X7X4X4X4X4X4X:X:X:X$X@X@X X{._._.(./.T.k.f.f.i.i.i.i.q.0.0.0...x.&           ",
"        AXB + _ 7X4X4X4X4X4X4X:X:X:X:X@X@X X{.{._._./.T.k.k.f.f.i.i.i.q.0.0.0.0...x.+           ",
"        ZXB + _ 4X7X4X4X4X4X>X:X:X:X$X@X@X X{._._././.T.k.f.f.i.i.i.q.0.0.0.4.4.{ +.+           ",
"        CXB & _ 4X4X4X4X>X>X:X:X:X$X@X@X X{._._././.T.k.f.f.i.i.i.q.0.0.4.4.4.4.{ ..+           ",
"        BXB - _ 4X4X4X4X>X:X:X:X:X@X@X X X_._.(./.T.k.f.f.p.i.i.q.0.0.4.4.4.4.4.[ { +           ",
"        NXM 1 _ 4X4X4X:X:X:X:X:X@X@X@X X{._._././.T.k.f.p.i.i.q.0.0.4.4.4.4.4.4.J [ +           ",
"        MXM 4 _ 4X>X:X:X:X:X:X$X@X@X X{._._././.T.k.f.f.i.i.q.0.0.4.4.4.<.<.<.<.D J +           ",
"        mXM e ^ :X:X:X:X:X:X$X@X@X X{._._.(./.T.k.f.f.i.i.i.0.0.4.4.4.<.,.,.,.,.M D +           ",
"        jXM r W :X:X:X:X:X$X@X@X X X{._._././.T.k.f.p.i.i.0.0.4.4.4.<.,.,.,.,.,.r B +           ",
"        iXM M W :X:X:X$X@X@X@X X X{._._././.T.k.f.f.i.i.q.0.0.4.4.<.,.,.,.,.,.,.r B +           ",
"        8XM M W :X:X$X@X@X@X X X{._._././.T.k.f.f.i.i.q.0.0.4.4.<.,.,.,.,.,.,.,.e M +           ",
"        D.M B W $X$X@X@X@X X X{._._._././.T.k.f.p.i.i.0.0.4.4.<.,.,.,.,.,.,.&.&.4 r +           ",
"        m.M B W @X@X@X@X@X X{._._._././.T.k.f.f.i.i.q.0.0.4.4.,.,.,.,.%.,.&.%.%.4 r +           ",
"        x.M D W @X@X X X X X{._._././.T.k.k.f.p.i.i.0.0.4.4.<.,.,.,.,.,.&.%.%.%.4 r +           ",
"        ..r D W @X X X X X_._._._././.T.k.f.f.i.i.q.0.0.4.4.,.,.,.,.,.&.%.%.%.%.4 e +           ",
"        { r D R  X X X{._._._._././.T.k.k.f.p.i.i.0.0.4.4.<.,.,.,.,.,.&.%.%.%.%.4 e +           ",
"        [ r D R  X X{._._._._././.T.k.k.f.f.p.i.q.0.0.4.4.<.,.,.,.,.,.%.%.%.%.%.4 e +           ",
"        J r D 8 R Y Y Y Y Y L L L L v l l l l l j h h h h s s s s s s i i i i i 9 e +           ",
"        D r { Z.Z.Z.Z.m.m.m.v.v.v.x.+.+...{ { [ J D D B M M M r r r e e e e e e e & +           ",
"        D 1 & & & & & 1 e e e 4 4 4 4 4 1 1 - lXlX- - - - - - - - & & & + . . . . . +           ",
"        D 1 & & $ + & 1 e e 4 4 4 4 4 4 1 1 - kXkX- - - - - - - - - & & + . . . . . +           ",
"        D 4 1 1 1 1 1 4 e e 4 4 4 4 4 1 4 1 - - - - - - - - - - - - - - & & $ + & + +           ",
"        4 . . . . . 1                                                     4 . . . . 1           ",
"        +.1 1 1 1 1 1 1 1 1 1 1 1 - - - - - - - - & & & & & & & & + + + + + + + + + + +         ",
"        B r D D D D D D D D D D D D D D D D D D D D D D D D D D D D D D D D D D M . & +         ",
"      gXe M x.{ m.x.+.x.{ m.x.+.x.{ m.x.#.x.{ m.x.+.x.{ m.x.+.x.{ m.x.+.x.{ m.x.x.M . &         ",
"      Z.1 x.+.x.{ m.x.+.x.{ m.x.,.x.{ m.#.+.x.{ m.x.+.x.{ m.x.+.x.{ m.x.+.x.{ m.x.{ . & .       ",
"    bXB 4 x.x.x.+.{ m.x.+.x.{ m.x.+.x.{ m.x.+.x.{ m.x.+.x.{ m.x.+.x.{ m.x.+.x.x.x.x.. + &       ",
"    D.1 & 4 4 4 4 4 & M 4 4 4 & M 4 4 4 4 4 4 4 4 4 & M 4 4 4 & M 4 4 4 & M 4 4 4 4 & . & .     ",
"  P.[ e 1 1 1 1 1 1 1 1 1 1 1 1 - - - - - - - - & & & & & & & + + + + + + + + + + + + + & +     ",
"  x.B M M M M M M M M M M M M M r r r r 4 - - - - - & e 1 1 1 - - - - - - - & & = - & & & &     ",
"D.[ D D B M M M M M M M M M M r r r r e 4 4 4 4 1 1 1 1 1 1 - - - - - - & & & & & & & & & & +   ",
"..rXrXrXrXrXrXrX8X8XP.P.P.K.D.S.Z.Z.m.x.+...{ [ D B M r e 4 1 1 - - & & + + + + + + + + + + .   ",
"M yXyXyXyXyXyXyXrXrXrX8X8XP.K.K.D.S.Z.m.v.x.+...{ [ J D B B M r r e e e 4 4 4 4 4 4 4 4 4 4 1   ",
"& e r M r e e r r r r r r r r r r r r r r r r r r r e e e e e e e e e e e e e r r r r r r r 7 . ",
"  + + & + . . + + & & & & & & & & & & & & & & & & & & & & & & & & & & & & & & & & & - + + + .   ",
"                                                                                                ",
"                                                                                                ",
"                                                                                                "
};
