/* XPM */
static char *cb166a1b43ce4622fabb578e75f9381f5OSrKSbZ3IqZ5MoH[] = {
/* columns rows colors chars-per-pixel */
"48 48 256 2 ",
"   c white",
".  c black",
"X  c #010101",
"o  c #020202",
"O  c gray1",
"+  c #040404",
"@  c gray2",
"#  c #060606",
"$  c #070707",
"%  c gray3",
"&  c #090909",
"*  c #0A0A0A",
"=  c #0B0B0B",
"-  c #0C0C0C",
";  c #0D0D0D",
":  c #0E0E0E",
">  c #0F0F0F",
",  c #101010",
"<  c #111111",
"1  c #121212",
"2  c #131313",
"3  c #141414",
"4  c #151515",
"5  c #161616",
"6  c #181818",
"7  c #191919",
"8  c #1A1A1A",
"9  c gray11",
"0  c #1D1D1D",
"q  c #1E1E1E",
"w  c gray12",
"e  c #221111",
"r  c #112211",
"t  c #111122",
"y  c #202020",
"u  c gray13",
"i  c #222222",
"p  c #232323",
"a  c #242424",
"s  c #252525",
"d  c gray15",
"f  c #272727",
"g  c #282828",
"h  c gray16",
"j  c #2A2A2A",
"k  c #2B2B2B",
"l  c #2C2C2C",
"z  c #2D2D2D",
"x  c #2F2F2F",
"c  c #223322",
"v  c #333322",
"b  c #252539",
"n  c #25253A",
"m  c #26263A",
"M  c #26263B",
"N  c #27273C",
"B  c #27273D",
"V  c #28283D",
"C  c #28283E",
"Z  c #29293E",
"A  c #29293F",
"S  c #332233",
"D  c #333333",
"F  c gray21",
"G  c #373737",
"H  c #3A3A3A",
"J  c #3B3B3B",
"K  c #3E3E3E",
"L  c #292940",
"P  c #2A2A40",
"I  c #2A2A41",
"U  c #2B2B41",
"Y  c #2B2B42",
"T  c #2B2B43",
"R  c #2C2B42",
"E  c #2C2C43",
"W  c #2C2C44",
"Q  c #2D2D44",
"!  c #2D2D45",
"~  c #2E2E46",
"^  c #2E2E47",
"/  c #2F2F47",
"(  c #2F2F48",
")  c #303049",
"_  c #30304A",
"`  c #31314A",
"'  c #31314B",
"]  c #32324B",
"[  c #32324C",
"{  c #32324D",
"}  c #33334D",
"|  c #33334E",
" . c #34344E",
".. c #34344F",
"X. c #35344F",
"o. c #343450",
"O. c #353550",
"+. c #353551",
"@. c #363651",
"#. c #363652",
"$. c #363653",
"%. c #373753",
"&. c #373754",
"*. c #383854",
"=. c #383855",
"-. c #393956",
";. c #393957",
":. c #3A3956",
">. c #3A3A57",
",. c #3A3A58",
"<. c #3B3B58",
"1. c #3B3B59",
"2. c #3B3B5A",
"3. c #3C3B58",
"4. c #3C3C5A",
"5. c #3D3C5A",
"6. c #3C3C5B",
"7. c #3D3C5B",
"8. c #3D3D5B",
"9. c #3D3D5C",
"0. c #3D3D5D",
"q. c #3E3E5D",
"w. c #3E3E5E",
"e. c #3F3F5F",
"r. c #414141",
"t. c #444444",
"y. c #464646",
"u. c #494949",
"i. c gray29",
"p. c #4D4D4D",
"a. c #4E4E4E",
"s. c gray31",
"d. c gray32",
"f. c #565656",
"g. c #575757",
"h. c gray35",
"j. c gray37",
"k. c #404060",
"l. c #414161",
"z. c #414162",
"x. c #414163",
"c. c #424263",
"v. c #424264",
"b. c #434364",
"n. c #434365",
"m. c #606060",
"M. c gray40",
"N. c #696969",
"B. c gray43",
"V. c #717171",
"C. c #727272",
"Z. c gray46",
"A. c #767676",
"S. c #797979",
"D. c #7B7B7B",
"F. c #778877",
"G. c #887788",
"H. c #808080",
"J. c #818181",
"K. c #868686",
"L. c #878787",
"P. c #8B8B8B",
"I. c #8C8C8C",
"U. c gray56",
"Y. c #909090",
"T. c #929292",
"R. c #939393",
"E. c #959595",
"W. c #969696",
"Q. c #979797",
"!. c #989898",
"~. c gray60",
"^. c #9A9A9A",
"/. c #9B9B9B",
"(. c #9D9D9D",
"). c gray62",
"_. c gray63",
"`. c #A4A4A4",
"'. c gray66",
"]. c #AAAAAA",
"[. c gray68",
"{. c #AFAFAF",
"}. c #B0B0B0",
"|. c #B1B1B1",
" X c #B2B2B2",
".X c #B3B3B3",
"XX c #B4B4B4",
"oX c gray71",
"OX c #B6B6B6",
"+X c #B7B7B7",
"@X c gray72",
"#X c gray73",
"$X c #BBBBBB",
"%X c #BCBCBC",
"&X c #BDBDBD",
"*X c gray75",
"=X c #C0C0C0",
"-X c #C1C1C1",
";X c #C2C2C2",
":X c #C3C3C3",
">X c gray77",
",X c #C5C5C5",
"<X c gray78",
"1X c #C8C8C8",
"2X c #CACACA",
"3X c #CBCBCB",
"4X c gray80",
"5X c #CDCDCD",
"6X c #CECECE",
"7X c #CCDDCC",
"8X c #DDCCDD",
"9X c #D0D0D0",
"0X c #D1D1D1",
"qX c LightGray",
"wX c #D4D4D4",
"eX c #D5D5D5",
"rX c gray84",
"tX c #D7D7D7",
"yX c #D8D8D8",
"uX c gray85",
"iX c #DADADA",
"pX c gray86",
"aX c #DCDCDC",
"sX c #DDDDDD",
"dX c gray87",
"fX c #DFDFDF",
"gX c gray88",
"hX c #E1E1E1",
"jX c #E2E2E2",
"kX c gray89",
"lX c #E4E4E4",
"zX c #E5E5E5",
"xX c #E6E6E6",
"cX c #E7E7E7",
"vX c #E8E8E8",
"bX c #E9E9E9",
"nX c #EAEAEA",
"mX c #EBEBEB",
"MX c #ECECEC",
"NX c gray93",
"BX c #EEEEEE",
"VX c #EFEFEF",
"CX c gray94",
"ZX c #F1F1F1",
"AX c gray95",
"SX c #F4F4F4",
"DX c #F6F6F6",
"FX c gray97",
"GX c #F8F8F8",
"HX c #F9F9F9",
"JX c gray98",
"KX c #FBFBFB",
"LX c gray99",
"PX c #FDFDFD",
"IX c #FEFEFE",
"UX c white",
/* pixels */
"IXIXIXIXIXIXIXIXIXIXIXKXKXKXFXFXFXAXAXAXMXMXmXmXxXxXhXhXfXfXfXiXiXiXiXwXwXwXwXwXwXwXwXwXwXwXMXH.",
"IXMXMXMXmXMXmXMXmXmXmXmXmXxXxXhXfXfXfXiXwXwX0X5X1X1X>X;X;X&X@X@XXXXXXX.X.X.X.X.X[.[.[.[..X.X].h ",
"IXMXMXMXmXMXMXMXmXmXmXmXmXxXxXhXhXfXiXiXwXwX0X5X1X1X>X;X&X&X@X@XXXXXXX.X.X.X.X.X.X.X[.[..X.X].h ",
"IXMXMXMXmXMXmXMXmXmXmXmXmXxXxXhXhXfXfXiXwXwX0X5X1X1X>X;X;X&X@X@XXXXXXX.X.X.X.X}.[..X[.[..X.X].h ",
"IXMXd.d.d.s.u.r.G l u 6 < ; * * * * ; ; ; ; ; * * * * * ; ; ; ; ; * * * ; 3 9 h J u.h.M.B.V.].h ",
"IXMXF.G.F.G.. . . . . . . . . . . . . . . . . . . . . . . . . . . . . . . . . . . . 7X8X7X8X].h ",
"IXMXG.F.G.F.. b b b b b N A P P E ! ! ( ) ) ) ) ) ) ) ) ) ) ! ! ! P P A A N b b b . 8X7X8X7X].h ",
"IXMXF.G.F.G.. b b b b N A A P P ! ! ! ) ) ) } } } } } } ) ) ) ! ! E P P A N b b b . 7X8X7X8X].a ",
"IXMXG.F.G.F.. b b b b N A A P E ! ! ) ) } } } ........} } } ) ) ! ! P P A A N b b . 8X7X8X7X].a ",
"IXMXF.G.F.G.. b b b N A A P P ! ! ( ) } } ..@.@.@.@.@.@...} } ) ( ! ! P P A A N b . 7X8X7X8X].a ",
"KXMXG.F.G.F.. b N N A A P P ! ! ( ) } } @.@.@.@.&.&.@.@.@.@...} ) ( ! E P P A A N . 8X7X8X7X].a ",
"KXMXF.G.F.G.. N N A A P P E ! ! ) } } @.@.@.-.-.-.-.-.-.&.@.@...} ) ! ! E P P A A . 7X8X7X8X].u ",
"KXMXG.F.G.F.. A A A P P E ! ! ) ) } @.@.&.-.-.1.1.1.1.1.-.-.@.@...} ) ! ! E P P A . 8X7X8X7X].u ",
"FXMXF.G.F.G.. A A P P P ! ! ( ) } ..@.&.-.1.1.4.4.4.4.4.1.-.-.@.@.} ) ) ! ! E P P . 7X8X7X8X].u ",
"FXMXG.F.G.F.. A P P P ! ! ! ) } ..@.@.-.1.4.9.9.9.9.9.9.9.1.1.-.@.@.} ) ( ! ! E P . 8X7X8X7X].9 ",
"FXMXG.F.G.F.. P P P E ! ! ) ) } @.@.-.1.4.9.9.9.k.k.k.9.9.9.1.-.-.@...} ) ! ! ! E . 8X7X8X7X].9 ",
"AXMXF.G.F.G.. P P E ! ! ! ) } } @.&.-.1.9.9.k.k.k.v.k.k.k.9.9.1.-.@.@.} ) ) ! ! ! . 7X8X7X8X].6 ",
"MXMXG.F.G.F.. P P ! ! ! ( ) } ..@.-.-.4.9.e.k.k.v.v.v.k.k.9.9.1.-.&.@.} } ) ! ! ! . 8X7X8X7X].6 ",
"MXMXF.G.F.G.. P E ! ! ! ) ) } @.@.-.1.4.9.k.k.v.v.v.v.v.k.k.9.4.-.-.@...} ) ( ! ! . 7X8X7X8X].3 ",
"mXMXG.F.G.F.. P E ! ! ! ) ) } @.@.-.1.4.9.k.k.v.v.v.v.v.k.k.9.4.1.-.@...} ) ( ! ! . 8X7X8X7X].< ",
"mXMXF.G.F.G.. P E ! ! ! ) ) } @.@.-.1.4.9.k.k.v.v.v.v.v.k.k.9.4.-.-.@...} ) ( ! ! . 7X8X7X8X].< ",
"xXMXF.G.F.G.. P P ! ! ! ( ) } ..@.-.-.4.9.9.k.k.v.v.v.k.k.e.9.1.-.&.@.} } ) ! ! ! . 7X8X7X8X].; ",
"xXMXG.F.G.F.. P P E ! ! ! ) } } @.&.-.1.9.9.k.k.k.v.k.k.k.9.4.1.-.@.@.} ) ) ! ! ! . 8X7X8X7X].; ",
"hXMXF.G.F.G.. P P P E ! ! ) ) } @.@.-.1.4.9.9.9.k.k.k.9.9.9.1.1.-.@...} ) ! ! ! E . 7X8X7X8X].* ",
"fXMXG.F.G.F.. A P P P ! ! ! ) } ..@.@.-.1.4.9.9.9.9.9.9.9.1.1.-.@.@.} ) ( ! ! E P . 8X7X8X7X].* ",
"fXMXF.G.F.G.. A A P P R ! ! ( ) } ..@.&.-.1.1.4.4.9.4.4.1.-.-.@.@.} ) ) ! ! E P P . 7X8X7X8X].$ ",
"fXMXG.F.G.F.. A A A P P E ! ! ) ) } @.@.&.-.-.1.1.1.3.1.-.-.@.@...} ) ! ! E P P A . 8X7X8X7X].$ ",
"iXMXF.G.F.G.. N N A A P P E ! ! ) } } @.@.@.-.-.-.-.-.-.&.@.@...} ) ! ! E P P A A . 7X8X7X8X].$ ",
"iXMXG.F.G.F.. b N N A A P P ! ! ( ) } } @.@.@.@.&.&.@.@.@.@...} ) ( ! E P P A A N . 8X7X8X7X].. ",
"iXMXF.G.F.G.. b b b N A A P P ! ! ( ) } } ..@.@.@.@.@.@...} } ) ( ! ! P P A A N b . 7X8X7X8X].. ",
"wXMXG.F.G.F.. b b b b N A A P E ! ! ) ) } } } ........} } } ) ) ! ! P P A A N b b . 8X7X8X7X].. ",
"wXMXF.G.F.G.. b b b b N A A P P ! ! ! ) ) ) } } } } } } ) ) ) ! ! E P P A N b b b . 7X8X7X8X].. ",
"wXMXG.F.G.F.. . . . . . . . . . . . . . . . . . . . . . . . . . . . . . . . . . . . 8X7X8X7X].. ",
"wXMXIXIXIXIXIXKXFXAXMXxXfXwX5X;X@XXX[.].`._.(.(.(.(.(._.`.].[.XX@X;X5XwXfXxXmXAXFXKXIXIXIX8X].. ",
"wXMXMXmXMXMXMXmXmXmXmXmXxXxXxXhXhXfXiXiXwX0X0X5X1X>X>X;X&X&X@X@XXXXX.X.X.X.X.X[.[.[.[.[..X[.].. ",
"wXMXMXMXmXMXmXMXmXmXmXmXmXxXxXhXhXfXfXiXwXwX0X5X1X1X>X;X;X&X@X@XXXXXXX.X.X.X.X[.[.[.[..X.X.X].. ",
"wXMXMXMXmXMXMXMXmXmXmXmXmXxXxXhXhXfXiXiXwXwX0X5X1X1X>X;X&X&X@X@XXXXXXX.X.X.X.X.X.X.X[..X.X.X].. ",
"wXMXMXMXmXMXmXMXmXmXmXmXmXxXxXhXhXfXfXiXwXwX0X5X1X1X>X;X;X&X@X@XXXXXXX.X.X.X.X.X[..X[..X.X.X].. ",
"H.h h h h h h h h h a a a a a u u u 9 9 6 6 3 3 < < ; ; * * * $ $ $ . . . . . . . . . . . . . . ",
"          8XF.^.^.^.^.^.E.E.T.U.U.K.H.D.V.N.m.f.s.t.K D h a 9 6 3 < ; ; * * * * * $ $           ",
"          7X].^.^.^.^.^.^.E.T.U.U.K.H.D.V.N.m.f.s.t.J G h a 9 6 3 < ; ; * * * * * $ $           ",
"            7Xl l l l l l l l h h h a a u u 9 9 6 6 3 3 < < ; ; ; * * * * * * * * $             ",
"                        S c S c S c S c S c e < < < e < < < e < < < . . . .                     ",
"                          S c D c S c D c S r < < t r < < t r < . . . . .                       ",
"                                G.v S c S < < < e < < . . . . . . F.                            ",
"          A.^.^.^.^.^.E.E.T.U.P.K.H.D.A.B.M.j.f.s.t.K G l h u 9 6 3 < ; ; ; * * * * c           ",
"        A.IX].].].].].].].].].].].].].].].].].].].].].].].].].].].].].F.].].].].].].].c         ",
"        9 9 c D c S c D c S c D c S c D c S c D c S c D c S c D c S c D c S c D c S c D         "
};
