/* XPM */
static const char *xpm_pc[] = {
/* columns rows colors chars-per-pixel */
"48 48 120 2 ",
"   c white",
".  c #010101",
"X  c #0C0C0C",
"o  c #0C0C13",
"O  c #141515",
"+  c #1A1A1A",
"@  c #201616",
"#  c #2C1616",
"$  c #162016",
"%  c #162C16",
"&  c #161620",
"*  c #191925",
"=  c #1C1C2B",
"-  c #162020",
";  c #232323",
":  c #2B2B2B",
">  c #202031",
",  c #353535",
"<  c #3D3C3C",
"1  c #433E3E",
"2  c #2C412C",
"3  c #364136",
"4  c #2F2F49",
"5  c #32324C",
"6  c #363652",
"7  c #383856",
"8  c #3C3C5C",
"9  c #412C41",
"0  c #434343",
"q  c #4C4C4C",
"w  c #525252",
"e  c #5D5D5D",
"r  c #5F6C5F",
"t  c #414163",
"y  c #464669",
"u  c #49496E",
"i  c #4D4D74",
"p  c #505077",
"a  c #52527B",
"s  c #655B65",
"d  c #626262",
"f  c #656A65",
"g  c #6B6B6B",
"h  c #747474",
"j  c #7C7C7C",
"k  c #848484",
"l  c #8C8787",
"z  c #818A81",
"x  c #8A808A",
"c  c #8C8C8C",
"v  c #939393",
"b  c #9B969B",
"n  c #9E9E9E",
"m  c #95AA95",
"M  c #AA95AA",
"N  c #A3A3A3",
"B  c #A5A5A5",
"V  c #A2A2A2",
"C  c #A8A8A8",
"Z  c #A9A9A9",
"A  c gray68",
"S  c #AEAEAE",
"D  c #ABABAB",
"F  c #B1B1B1",
"G  c #B3B3B3",
"H  c #B7B7B7",
"J  c #B2B2B2",
"K  c gray72",
"L  c #BBBBBB",
"P  c #B9BEBE",
"I  c #BCBCBC",
"U  c #BDBDBD",
"Y  c #BABABA",
"T  c #C0C0C0",
"R  c #C1C1C1",
"E  c #C3C3C3",
"W  c #C5C5C5",
"Q  c #C3C3C3",
"!  c #C8C8C8",
"~  c #CACACA",
"^  c #CBCBCB",
"/  c #CDCDCD",
"(  c #CCCCCC",
")  c #D0D0D0",
"_  c #D2D2D2",
"`  c #D4D4D4",
"'  c #DADADA",
"]  c #DBDBDB",
"[  c #DCDCDC",
"{  c #DEDEDE",
"}  c #DFDFDF",
"|  c #DEDEDE",
" . c #E1DCE1",
".. c #E0E0E0",
"X. c #E1E1E1",
"o. c #E3E3E3",
"O. c #E4E4E4",
"+. c #E5E5E5",
"@. c #E6E6E6",
"#. c #E3E3E3",
"$. c gray91",
"%. c #E9E9E9",
"&. c #EAEAEA",
"*. c #EBEBEB",
"=. c gray93",
"-. c #EEEEEE",
";. c #EFEFEF",
":. c #EEEEEE",
">. c #F4E9F4",
",. c #F8EDF8",
"<. c #F0F0F0",
"1. c #F4F4F4",
"2. c #F5F5F5",
"3. c #F3F3F3",
"4. c #F8F8F8",
"5. c #F9F9F9",
"6. c #FDFDFD",
"7. c #FEFEFE",
"8. c white",
"9. c #FFFFFF",
/* pixels */
"            8.8.8.8.8.8.8.8.8.8.8.8.8.8.8.8.&.[ _ ~ U S B n v c k j h h g g g g g ,             ",
"            8.8.8.8.8.8.8.8.8.8.8.8.8.8.8.8.8.8.5.1.<.&.&.@.....[ [ ' ' ' ' ' ' ' q             ",
"            8.8.8.8.8.8.8.8.8.8.8.8.8.8.8.8.8.8.5.1.<.&.&.@.....[ [ ' ' ' ' ' ' ' q             ",
"            8.W W E U H S B n b v v v v c c c k k j j j j j j h h h j k v n Z G G q             ",
"            8.m n n . . . . . . . . . . . . . . . . . . . . . . . . . . . z 8.8.8.q             ",
"            8.n n n * 4 4 5 5 5 6 6 7 8 8 8 8 t t t 8 8 8 8 7 6 6 5 5 4 4 k 8.8.8.q             ",
"            8.n n n * 4 4 5 5 5 6 6 7 8 8 8 t t t t t 8 8 8 8 6 6 6 5 5 4 k 8.8.8.q             ",
"            8.n n n * 4 5 5 5 6 6 7 8 8 8 t t t t t t t t 8 8 7 6 6 5 5 5 k 8.8.8.q             ",
"            8.n n n * 5 5 5 6 6 7 8 8 t t t y y y y y y t t 8 8 7 7 6 5 5 k 8.8.8.q             ",
"            8.M n n * 5 6 6 6 7 8 8 t t y y u u i u u u y y t 8 8 8 6 6 6 x 8.8.8.q             ",
"            8.m n n = 5 6 6 6 7 8 8 t t y u i i i i i u u y t t 8 8 7 6 6 z 8.8.8.q             ",
"            8.M n n = 6 6 6 7 8 8 t t y u i i p p p i i i u y t t 8 7 7 6 x 8.8.8.q             ",
"            8.n n n = 6 6 7 8 8 8 t t y i i p p p p p i i i y t t 8 8 7 7 k 8.8.8.0             ",
"            8.M n n = 6 7 7 8 8 t t y u i p p a a a a p i i u y t t 8 8 7 x 8.8.8.0             ",
"            8.m n n = 6 7 7 8 8 t t y u i p a a a a a p p i u y t t 8 8 7 z 8.8.8.0             ",
"            1.n n n = 6 7 7 8 8 t t y u i p a a a a a p p i u y t t 8 8 7 k 8.8.8.0             ",
"            =.m n n = 6 7 7 8 8 t t y u i i p a a a a p p i u y t t 8 8 7 z 8.8.8.0             ",
"            @.M n n = 6 7 7 8 8 t t y y i i p p a a p p i i u y t t 8 7 7 x 8.8.8.0             ",
"            ..m n n = 6 6 7 8 8 8 t t y u i i p p p p i i u y t t 8 8 7 7 z 8.8.8.0             ",
"            ' n n n = 6 6 6 7 7 8 8 t t y u i i i i i i u u t t 8 8 7 6 6 k 8.8.8.0             ",
"            _ n n n * 5 5 6 6 7 8 8 8 t t y u u u u u y y t t 8 8 7 6 6 5 k 8.8.8.<             ",
"            _ n n n * 5 5 5 6 6 7 8 8 t t t y y y y y y t t 8 8 7 7 6 5 5 k 8.8.8.<             ",
"            / n n n * 5 5 5 5 6 6 7 8 8 t t t y y y t t t t 8 8 7 6 5 5 5 k 8.8.8.<             ",
"            ~ M n n * 4 5 5 5 5 6 7 8 8 8 t t t t t t t 8 8 8 7 6 6 5 5 5 x 8.8.8.<             ",
"            ~ n n n o * * * * = = = = = = = > > > > > = = = = = = = * * * k 8.8.8.<             ",
"            ~ >.=.=.n b v v c k k j h g g g f d d d f g g g h j k k v v b  .8.8.8.<             ",
"            ~ 8.8.8.8.8.8.8.8.8.8.8.8.5.<.=.@...[ [ [ [ ....@.&.<.1.8.8.8.8.8.8.,.<             ",
"            ~ 8.8.8.8.8.8.8.8.8.8.8.8.8.8.8.8.8.5.1.<.&.&.&.....[ [ ' ' ' ' ' ' ' <             ",
"            P 8.8.8.8.8.8.8.8.8.8.8.8.8.8.8.8.8.5.1.<.*.&.@.....[ [ ' ' ' ' ' ' ' <             ",
"          O 0 e e e e e e e e e e e e w w w w q q q 0 0 0 0 0 9 < < < < < < < < < q             ",
"                  b z c c v c c k k j j h g e w q 0 < , : ; ; + + + O O O O O                   ",
"                    ~ E E E U K K G Z N v c j f e w 3 , : ; + O O X X X X .                     ",
"                              , 9 2 , , 2 9 # O O @ O O @ @ O X . .                             ",
"                                2 0 , , 0 2 % O & - O & - $ . . . .                             ",
"                                    l g r s 0 1 < , ; + + O O 0                                 ",
"                  W ~ ~ ~ ~ ~ W E E U K G S B n b v c k k j j h f f h h h j r                   ",
"                  ; 3 3 9 2 3 , 2 0 , , 0 2 2 3 , , 0 , , 3 2 , 3 3 , 0 2 , 3                   ",
"  8.8.8.8.8.8.8.8.8.8.<.@.' / E K S B n v c k k j j h j K K K K K K K K K U K U K K S h g g f   ",
"    8.8.8.8.8.1.&.[ ~ E K G S Z B N n n n n n n n n n + g g g g g g g g g g g g g g K =.` ` e   ",
"    8.8.8.8.8.8.=.[ / E K G S Z B N n n n n n n n n n + g g 0 0 0 , : : , 0 0 0 e g K =.` ` w   ",
"    8.8.8.8.8.8.<.../ E K G S B N N n n n n n n n n n + g g h h g e w w e g g g g g K =.` ` <   ",
"    8.8.8.8.8.8.<.@._ W K G S B N N n n n n n n n n n + g g w w g g g g g g g g g g K =.` ` :   ",
"    8.8.8.8.8.8.1.@._ W K G S Z N N N n n n n n n n n + q q q q q q q q q q q q q q Z =.` ` ;   ",
"    8.8.8.8.8.8.1.@._ W K G S Z N N N n n n n n n n n + g g g g g g g g g g g g g g K =.` ` +   ",
"    8.8.8.8.8.8.<.../ E K G S Z B N N n n n n n n n n + g g h h h h h h h h h h h g K =.` ` +   ",
"    8.8.8.8.8.8.=.[ / E K G S Z B N N n n n n n n n n + g f d d d d d d d d d d f g U <.` ` +   ",
"    8.8.8.8.8.1.&.[ ~ E K G S Z B N n n n n n n n n n + g d d g g g g g g g g g g g K <.` ` +   ",
"  w + + + O O O O O O X X X X X X . . . . . . . . . . . , , , , , , , , , , , , , , e 0 . . +   "
};
