/* XPM */
static const char *_workstation_sparc[] = {
/* columns rows colors chars-per-pixel */
"48 48 147 2 ",
"   c white",
".  c #010101",
"X  c #070807",
"o  c #070309",
"O  c #0B060D",
"+  c #0B0B0B",
"@  c #0F0712",
"#  c #0C0C13",
"$  c #120916",
"%  c #160B1A",
"&  c #141414",
"*  c #1C1C1C",
"=  c #201616",
"-  c #2C1616",
";  c #162016",
":  c #162C16",
">  c #161620",
",  c #1F1125",
"<  c #191925",
"1  c #1C1C2B",
"2  c #162020",
"3  c #232323",
"4  c #2B2B2B",
"5  c #202031",
"6  c #353535",
"7  c #3D3C3C",
"8  c #433E3E",
"9  c #2C412C",
"0  c #364136",
"q  c #236527",
"w  c #2F2F49",
"e  c #32324C",
"r  c #363652",
"t  c #383856",
"y  c #3C3C5C",
"u  c #412C41",
"i  c #572C68",
"p  c #633275",
"a  c #643B73",
"s  c #69347C",
"d  c #424242",
"f  c #4B4B4B",
"g  c #515151",
"h  c #5D5D5D",
"j  c #5F6A5F",
"k  c #414163",
"l  c #464669",
"z  c #49496E",
"x  c #4D4D74",
"c  c #505077",
"v  c #52527B",
"b  c #655B65",
"n  c #75427F",
"m  c #636363",
"M  c #656A65",
"N  c #6C6B6B",
"B  c #747474",
"V  c #7C7C7C",
"C  c #6F3882",
"Z  c #724880",
"A  c #78458A",
"S  c #7E6D86",
"D  c #895C99",
"F  c #837B85",
"G  c #848484",
"H  c #8C8787",
"J  c #818A81",
"K  c #8A808A",
"L  c #8C8C8C",
"P  c #93809A",
"I  c #939393",
"U  c #9B969B",
"Y  c #9D9D9D",
"T  c #95AA95",
"R  c #AA95AA",
"E  c #B08BBE",
"W  c #A3A3A3",
"Q  c #A8A8A8",
"!  c #AEAEAE",
"~  c #ACACAC",
"^  c #B1B1B1",
"/  c #B3B3B3",
"(  c #B6B6B6",
")  c #B3B3B3",
"_  c gray72",
"`  c #BBBBBB",
"'  c #B9BEBE",
"]  c #BCBCBC",
"[  c gray",
"{  c #BBBBBB",
"}  c #C69AD9",
"|  c #C99DDC",
" . c #CC9EE1",
".. c #CFA9E0",
"X. c #BEC1C1",
"o. c #C0C0C0",
"O. c #C3C3C3",
"+. c #C5C5C5",
"@. c #C6C6C6",
"#. c #C3C3C3",
"$. c #C8C8C8",
"%. c #C9C9C9",
"&. c #CBCBCB",
"*. c #CACACA",
"=. c #CDCDCD",
"-. c #CCCCCC",
";. c #D0D0D0",
":. c #D2D2D2",
">. c #D4D4D4",
",. c #D4D4D4",
"<. c #DADADA",
"1. c #DBDBDB",
"2. c #D9D9D9",
"3. c #DCDCDC",
"4. c #DDDDDD",
"5. c #DEDEDE",
"6. c #DFDFDF",
"7. c #DBDBDB",
"8. c #E1DCE1",
"9. c #E0E0E0",
"0. c #E1E1E1",
"q. c #E3E3E3",
"w. c #E4E4E4",
"e. c #E6E6E6",
"r. c #E7E7E7",
"t. c #E3E3E3",
"y. c #E9E9E9",
"u. c gray91",
"i. c #EBEBEB",
"p. c #EDEDED",
"a. c #ECECEC",
"s. c #EEEEEE",
"d. c #EAEAEA",
"f. c #F4E9F4",
"g. c #F8EDF8",
"h. c #F0F0F0",
"j. c #F1F1F1",
"k. c #F5F5F5",
"l. c #F4F4F4",
"z. c gray95",
"x. c #F8F8F8",
"c. c #F9F9F9",
"v. c #FDFDFD",
"b. c #FCFCFC",
"n. c #FEFEFE",
"m. c white",
"M. c #FEFEFE",
/* pixels */
"          m.m.m.m.m.m.m.m.m.m.m.m.m.m.m.m.m.l.p.r.q.3.>.;.=.+.#.] ] _ ( / / / / / &             ",
"          m.m.m.m.m.m.m.m.m.m.m.m.m.m.m.m.m.m.m.x.l.j.i.i.r.q.q.3.3.<.<.<.<.<.<.<.*             ",
"          m.m.m.m.m.m.m.m.m.m.m.m.m.m.m.m.m.m.m.x.l.j.i.i.r.q.q.3.3.<.<.<.<.<.<.<.*             ",
"          m.m.+.+.#.] ( ! W Y U I I I I L L L G G V V V V V V B B B V G I Y Q / / *             ",
"          m.m.T Y Y . . . . . . . . . . . . . . . . . . . . . . . . . . . J m.m.m.*             ",
"          m.m.Y Y Y < w w e e e r r t y y y y k k k y y y y t r r e e w w G m.m.m.*             ",
"          m.m.Y Y Y < w w e e e r t t y y y k k k k k y y y y t r r e e w G m.m.m.*             ",
"          m.m.Y Y Y < w e e e r r t y y y k k k k k k k k y y t t r e e e G m.m.m.*             ",
"          m.m.Y Y Y < e e e r r t y y k k k l l l l l l k k y y t t r e e G m.m.m.*             ",
"          m.m.R Y Y < e r r t t y y k k l l z z x z z z l l k y y y t r r K m.m.m.*             ",
"          m.m.T Y Y 1 e r r t t y y k k l z x x x x x z z l k k y y t r r J m.m.m.*             ",
"          m.m.R Y Y 1 r r t t y y k k l z x x c c c x x x z l k k y t t t K m.m.m.&             ",
"          x.m.Y Y Y 1 r t t y y y k k l x x c c c c c x x x l k k y y t t G m.m.m.&             ",
"          j.m.R Y Y 1 t t t y y k k l z x c v v v v v c x x z l k k y y t K m.m.m.&             ",
"          p.m.T Y Y 1 t t t y y k k l z x c v v v Z v c c x z l k k y y t J m.m.m.&             ",
"          r.l.Y Y Y 1 t t t y y k k l z x c v v Z Z v c c x z l k k y y t G m.m.m.&             ",
"          q.p.T Y Y 1 t t t y y k k l z x x c v v v v c c x z l k k y y t J m.m.m.&             ",
"          3.r.R Y Y 1 r t t y y k k l l x x c c v v c c x x z l k k y t t K m.m.m.+             ",
"          <.q.T Y Y 1 r t t y y y k k l z x x c c c c x x z l k k y y t t J m.m.m.+             ",
"          >.<.Y Y Y 1 r r r t t y y k k l z x x x x x x z z k k y y t t r G m.m.m.+             ",
"          ;.;.Y Y Y < e e r r t y y y k k l z z z z z l l k k y y t r r e G m.m.m.+             ",
"          =.;.Y Y Y < e e e r r t y y k k k l l l l l l k k y y t t r e e G m.m.m.+             ",
"          =.=.Y Y Y < e e e e r t t y y k k k l l l k k k k y y t r e e e G m.m.m.+             ",
"          *.*.R Y Y < w e e e e r t y y y k k k k k k k y y y t t r e e e K m.m.m.+             ",
"          *.*.Y Y Y # < < < < 1 1 1 1 1 1 1 5 5 5 5 5 1 1 1 1 1 1 1 < < < G m.m.m.+             ",
"          *.*.f.p.p.Y U I I L G G V B N N N m m m m m N N N B V G G I I U 8.m.m.m.+             ",
"          *.*.m.m.m.m.m.m.m.m.m.m.m.m.x.j.p.r.q.3.3.3.3.9.q.r.i.j.l.m.m.m.m.m.m.g.+             ",
"          *.*.m.m.m.m.m.m.m.m.m.m.m.m.m.m.m.m.m.x.l.j.i.i.i.q.q.3.3.<.<.<.<.<.<.<.+             ",
"          X.' m.m.m.m.m.m.m.m.m.m.m.m.m.m.m.m.m.x.l.j.i.i.r.q.q.3.3.<.<.<.<.<.<.<.+             ",
"          + * 3 3 3 3 3 3 3 3 3 * * * * * & & & & & & + + + + + + + + + + + + + + 3             ",
"                  U J L L I L L G G V V B N h g f d 7 6 4 3 3 * * . + + + . &                   ",
"                    *.#.#.#.] _ _ / Q W I L V m h g 7 6 4 3 * & & . . . . .                     ",
"                              6 u 9 6 6 9 u - & & = & & = = & + . .                             ",
"                                9 d 6 6 d 9 : & > 2 & > 2 ; . . . .                             ",
"                                    H N j b d 8 7 6 3 * * & + + . . . . . +                     ",
"                  +.*.*.*.*.*.+.#.#.] _ / ! W Y U I L G G V V B M M B B B V +                   ",
"                  3 0 0 u 9 0 6 9 d 6 6 d 9 9 0 6 6 d 6 6 0 9 6 0 0 6 d 9 6 X                   ",
"m.m.m.m.m.m.m.m.m.m.m.m.m.m.m.m.x.x.l.j.p.i.q.3.<.>.;.=.*.+.#.] ] _ ( ( / / / / / ! ! ! ! ! ! 6 ",
"r.q.3.3.3.<.<.<.<.<.>.>.>.;.;.=.=.*.+.#.] ] _ ( ! ! Q W W Y U U I I I I L L L L L L L L L L m + ",
"..Q 3.3.3.3.<.<.<.<.<.>.>.>.;.=.=.*.+.#.#.] _ / ! ! Q W W Y U U I I I L L L L L L L L L L L S , ",
" .n / 3.3.3.W f <.<.! ;.>.>.;./ _ *.+.#.#.U U ( ^ ~ Q W T Y U U I I I L L L L L L L L L L P E % ",
"} p Z / 3.3.f h W >.Y V V I Q L V U N V Q V L / ^ ~ Q W W Y U U I I I L L L L L L L L L F E A q ",
"| s p Z / 3.3.W <.<.#.;.>.>.;.=.=.*.+.#.#.] _ ( ^ ! Q W T Y U U I I I L L L L L L L L F E A C % ",
"| s p C Z / 3.<.<.<.<.>.>.>.;.;.=.*.+.#.#.] _ ( ^ ! Q W T Y U U I I I L L L L L L L F E A C C @ ",
"} p i p p Z / <.<.<.<.>.>.>.;.=.=.*.+.#.#.] _ ( ! ! Q W W Y U U I I I L L L L L L P E A C C C O ",
"| s p s s p Z / <.<.>.>.>.;.;.;.=.*.+.#.] ] _ ( ! ! Q W W Y U U I I I I L L L L P E A C C C C O ",
"| s p s s p C a 4 + + + + + + + + + + + + . . . . . . . . . . . . . . . . . . + E D C C C C C O ",
"F o o o o o o . . . . . . . . . . . . . . . . . . . . . . . . . . . . . . . . O o o o o o . . . "
};
