/* XPM */
static const char *xpm_unix[] = {
/* columns rows colors chars-per-pixel */
"48 48 115 2 ",
"   c white",
".  c #000000",
"X  c #0B0B0B",
"o  c #121212",
"O  c #1B1B1B",
"+  c #221111",
"@  c #112211",
"#  c #111122",
"$  c #242424",
"%  c #2C2C2C",
"&  c #223322",
"*  c #333322",
"=  c #26263B",
"-  c #28283E",
";  c #332233",
":  c #223333",
">  c #343434",
",  c #3A3A3A",
"<  c #2C2C43",
"1  c #2F2F48",
"2  c #32324C",
"3  c #363652",
"4  c #393956",
"5  c #3B3B59",
"6  c #444444",
"7  c #4C4C4C",
"8  c #545454",
"9  c #5C5C5C",
"0  c #646464",
"q  c #6C6C6C",
"w  c #737373",
"e  c #7A7A7A",
"r  c #778877",
"t  c #887788",
"y  c #838383",
"u  c #8D8D8D",
"i  c #949494",
"p  c #9B9B9B",
"a  c gray64",
"s  c #A8A8A8",
"d  c #AAAAAA",
"f  c #ACACAC",
"g  c gray68",
"h  c #AFAFAF",
"j  c #AAAAAA",
"k  c #B0B0B0",
"l  c #B1B1B1",
"z  c #B2B2B2",
"x  c #B3B3B3",
"c  c #B4B4B4",
"v  c gray71",
"b  c #B6B6B6",
"n  c #B7B7B7",
"m  c gray72",
"M  c gray73",
"N  c #BBBBBB",
"B  c #BCBCBC",
"V  c #BDBDBD",
"C  c gray75",
"Z  c #C0C0C0",
"A  c #C1C1C1",
"S  c #C2C2C2",
"D  c #C3C3C3",
"F  c gray77",
"G  c #C5C5C5",
"H  c #C6C6C6",
"J  c gray78",
"K  c #C8C8C8",
"L  c #CACACA",
"P  c #CBCBCB",
"I  c gray80",
"U  c #CDCDCD",
"Y  c #CECECE",
"T  c gray81",
"R  c #CCDDCC",
"E  c #DDCCDD",
"W  c #D0D0D0",
"Q  c #D1D1D1",
"!  c LightGray",
"~  c #D4D4D4",
"^  c gray84",
"/  c #D7D7D7",
"(  c gray85",
")  c #DADADA",
"_  c gray86",
"`  c #DCDCDC",
"'  c #DDDDDD",
"]  c gray87",
"[  c #DFDFDF",
"{  c gray88",
"}  c #E1E1E1",
"|  c #E2E2E2",
" . c #E5E5E5",
".. c #E6E6E6",
"X. c #E7E7E7",
"o. c #E8E8E8",
"O. c #E9E9E9",
"+. c #EAEAEA",
"@. c #EBEBEB",
"#. c #ECECEC",
"$. c #EEEEEE",
"%. c gray94",
"&. c #F1F1F1",
"*. c gray95",
"=. c #F4F4F4",
"-. c #F6F6F6",
";. c gray97",
":. c #F9F9F9",
">. c gray98",
",. c #FBFBFB",
"<. c gray99",
"1. c #FDFDFD",
"2. c #FEFEFE",
"3. c white",
"4. c white",
/* pixels */
"2.2.2.2.2.2.2.2.,.,.;.%.%.#.@. .| _ / W L D N c f a p i u y y e w w q 0 0 9 9 9 9 8 8 8 8 8 8 8 ",
"2.#.#.#.@.#.@.#.@.@.@. .@. . .| | ] ] _ / / W T L L H D D V N N c c c x x x x x f f f f f k d 7 ",
"2.#.#.#.@.#.#.#.@.@.@.@.@. . .| | ] _ _ / / W T L H H D V V N N c c c x x x x f x x f f x x d 8 ",
"2.#.#.#.@.#.@.#.@.@.@.@.@. . .| | ] ] _ / ~ W T L H H D D V N N c c c x x x x x f x f x x x d 8 ",
"2.#.8 8 8 7 7 6 , % $ O o X X X X X X X X X X X X X X X X X X X X X X X X o O % , 7 9 0 q w d 8 ",
",.#.r t r t . . . . . . . . . . . . . . . . . . . . . . . . . . . . . . . . . . . . R E R E d 8 ",
",.#.t r t r . = = = = = = - < < < < < 1 2 2 2 2 2 2 2 2 2 2 < < < < < - - = = = = . E R E R d 7 ",
";.#.r t r t . = = = = = - - < < < < < 2 2 2 2 2 2 2 2 2 2 2 2 < < < < < - = = = = . R E R E d 7 ",
";.#.t r t r . = = = = = - - < < < < 2 2 2 2 2 2 2 2 2 2 2 2 2 2 < < < < - - = = = . E R E R d 7 ",
"%.#.r t r t . = = = = - - < < < < 1 2 2 2 2 3 3 3 3 3 3 2 2 2 2 1 < < < < - - = = . R E R E d 7 ",
"@.#.t r t r . = = = - - < < < < 1 2 2 2 3 3 3 3 3 3 3 3 3 3 2 2 2 1 < < < < - - = . E R E R d 7 ",
" .#.r t r t . = = - - < < < < < 2 2 2 3 3 3 4 4 4 4 4 4 3 3 3 2 2 2 < < < < < - - . R E R E d 7 ",
"] #.t r t r . - - - < < < < < 2 2 2 3 3 3 4 4 5 5 5 5 5 4 4 3 3 2 2 2 < < < < < - . E R E R d 6 ",
"/ #.r t r t . - - < . . . . . . . . . . . . . . . . . . . . . . . . . . . . < < < . R E R E d 6 ",
"T #.t r t r . - < < . . . . . . . . . . . . . . . . . . . . . . . . . . . . < < < . E R E R d 6 ",
"H #.t r t r . < < < . . O 8 O . . 8 , . 8 , . . O 8 . 8 O O 8 , . . 8 , . . < < < . E R E R d , ",
"V #.r t r t . < < < . . 8 2.8 . . 2.d . 2.| O . 8 2.. 2.8 . d | O , 2.8 . . < < < . R E R E d , ",
"x #.t r t r . < < < . . 8 2.8 . . 2.d . 2.2.d . 8 2.. 2.8 . O 2.u | H . . . < < < . E R E R d , ",
"d #.r t r t . < < < . . 8 2.8 . . 2.d . 2.u 2., 8 2.. 2.8 . . w 2.2.O . . . 1 < < . R E R E d , ",
"p #.t r t r . < < < . . 8 2.8 . . 2.d . 2.8 u | 8 2.. 2.8 . . , 2.| . . . . 1 < < . E R E R d > ",
"i #.r t r t . < < < . . 8 2.8 . . 2.d . 2.8 O | | 2.. 2.8 . . H H 2.w . . . 1 < < . R E R E d % ",
"u #.r t r t . < < < . . . 2.| 8 d 2.w . 2.8 . 8 2.2.. 2.8 . w 2., u 2.O . . < < < . R E R E d % ",
"y #.t r t r . < < < . . . 8 H 2.| u . . 2.8 . . H 2.. 2.8 O | d . O 2.d . . < < < . E R E R d % ",
"e #.r t r t . < < < . . . . . . . . . . . . . . . . . . . . . . . . . . . . < < < . R E R E d $ ",
"w #.t r t r . - < < . . . . . . . . . . . . . . . . . . . . . . . . . . . . < < < . E R E R d $ ",
"q #.r t r t . - - < < < < < 1 2 2 2 3 3 4 5 5 5 5 5 5 5 5 4 4 3 3 2 2 2 < < < < < . R E R E d $ ",
"0 #.t r t r . - - - < < < < < 2 2 2 3 3 3 4 4 5 5 5 5 5 4 4 3 3 2 2 2 < < < < < - . E R E R d O ",
"0 #.r t r t . = = - - < < < < < 2 2 2 3 3 3 4 4 4 4 4 4 3 3 3 2 2 2 < < < < < - - . R E R E d O ",
"9 #.t r t r . = = = - - < < < < 1 2 2 2 3 3 3 3 3 3 3 3 3 3 2 2 2 1 < < < < - - = . E R E R d O ",
"9 #.r t r t . = = = = - < < < < < 1 2 2 2 2 3 3 3 3 3 3 2 2 2 2 < < < < < - - = = . R E R E d O ",
"8 #.t r t r . = = = = = - - < < < < 2 2 2 2 2 2 2 2 2 2 2 2 2 2 < < < < - - = = = . E R E R d O ",
"8 #.r t r t . = = = = = - - < < < < < 2 2 2 2 2 2 2 2 2 2 2 2 < < < < < - = = = = . R E R E d O ",
"8 #.t r t r . . . . . . . . . . . . . . . . . . . . . . . . . . . . . . . . . . . . E R E R d O ",
"8 #.2.2.2.2.2.,.;.%.#. .] / T D N c f d a a p p p p p a a d f x N D T / ]  .#.%.;.,.2.2.2.E d O ",
"8 #.#.@.#.#.#.@.@.@.@.@. . . .| | ] _ _ / W W T L H H D V V N N c c x x x x x f f x x f x f d O ",
"8 #.#.#.@.#.@.#.@.@.@.@.@. . .| | ] ] _ / / W T L L H D D V N N c c c x x x x f f f f x x f d O ",
"8 #.#.#.@.#.#.#.@.@.@.@.@. . .| | ] _ _ / / W T L L H D V V N N c c c x x x x f x f f f x f d O ",
": #.#.#.@.#.@.#.@.@.@.@.@. . .| | ] ] _ / / W T L L H D D V N N c c c x x x x x f f f f f f d O ",
"8 8 8 8 7 7 7 7 7 7 7 7 7 7 6 6 6 6 , , , , , , > % % % % $ $ $ $ O O O O O O O O O O O O O O O ",
"          E r p p p p p i i i u u y y e w q 0 8 7 6 , > % $ O O o o X X X X X X X . .           ",
"          R d p p p p p p i i u u y y e w q 0 8 7 6 , > % $ O O o o X X X X X X X . .           ",
"            R % % % % % % % % % % % $ $ $ $ O O O O o o o o X X X X X X X X X X X .             ",
"                        ; & ; & ; & ; & ; & + o o o + o o o + o o o . . . .                     ",
"                          ; & > & ; & > & ; @ o o # @ o o # @ o . . . . .                       ",
"                                t * ; & ; o o o + o o . . . . . . r                             ",
"          w p p p p p i i i u u y y e w q 0 9 8 7 6 , , % % $ O O o o X X X X X X X &           ",
"        w 2.d d d d d d d d d d d d d d d d d d d d d d d d d d d d d r d d d d d d d &         ",
"        O O & > & ; & > & ; & > & ; & > & ; & > & ; & > & ; & > & ; & > & ; & > & ; & >         "
};
