/* XPM */
static const char *_workstation_sgi[] = {
/* columns rows colors chars-per-pixel */
"48 48 146 2 ",
"   c white",
".  c #010101",
"X  c #0C0C0C",
"o  c #01011E",
"O  c #0C0C13",
"+  c #141515",
"@  c #1A1A1A",
"#  c #201616",
"$  c #2C1616",
"%  c #162016",
"&  c #162C16",
"*  c #020123",
"=  c #03022B",
"-  c #161620",
";  c #191925",
":  c #1C1C2B",
">  c #040334",
",  c #04033B",
"<  c #162020",
"1  c #232323",
"2  c #2A2A2A",
"3  c #202031",
"4  c #353535",
"5  c #3D3C3C",
"6  c #433E3E",
"7  c #2C412C",
"8  c #364136",
"9  c #050444",
"0  c #06054B",
"q  c #060551",
"w  c #080654",
"e  c #08065C",
"r  c #09085C",
"t  c #2F2F49",
"y  c #32324C",
"u  c #363652",
"i  c #383856",
"p  c #3C3C5C",
"a  c #090661",
"s  c #0A0964",
"d  c #0A096C",
"f  c #0B0A75",
"g  c #0D0A7C",
"h  c #26246E",
"j  c #2D2C76",
"k  c #333277",
"l  c #412C41",
"z  c #424343",
"x  c #4B4B4B",
"c  c #525252",
"v  c #5D5D5D",
"b  c #5F6C5F",
"n  c #414163",
"m  c #464669",
"M  c #49496E",
"N  c #4D4D74",
"B  c #505077",
"V  c #52527B",
"C  c #655B65",
"Z  c #646464",
"A  c #656A65",
"S  c #6C6B6B",
"D  c #747474",
"F  c #7C7C7C",
"G  c #0D0B83",
"H  c #0E0C8C",
"J  c #100F89",
"K  c #0F0D93",
"L  c #0F0E98",
"P  c #110F95",
"I  c #100E9C",
"U  c #111095",
"Y  c #12109B",
"T  c #3C3A85",
"R  c #100EA2",
"E  c #110FAC",
"W  c #1310A4",
"Q  c #130FB2",
"!  c #1310B4",
"~  c #1311BD",
"^  c #4A4989",
"/  c #51508C",
"(  c #595894",
")  c #67659D",
"_  c #6E6D9F",
"`  c #6E6DA0",
"'  c #7674A5",
"]  c #7D7CAC",
"[  c #1412C4",
"{  c #1412CB",
"}  c #1513D2",
"|  c #1815D6",
" . c #1513DE",
".. c #1815DA",
"X. c #1915E5",
"o. c #1914E9",
"O. c #1916F2",
"+. c #1A17FD",
"@. c #1D19FF",
"#. c #211DFF",
"$. c #848484",
"%. c #8C8787",
"&. c #818A81",
"*. c #8A808A",
"=. c #8C8C8C",
"-. c #939393",
";. c #9F9F9F",
":. c #9B969B",
">. c #95AA95",
",. c #8B8BB6",
"<. c #9393BD",
"1. c #AA95AA",
"2. c #A4A4A4",
"3. c #A8A8A8",
"4. c #AEAEAE",
"5. c #B2B2B2",
"6. c #B5B5B5",
"7. c #B9B9B9",
"8. c #BCBCBC",
"9. c #BABCBC",
"0. c #C1C1C1",
"q. c #C4C4C4",
"w. c #CBCBCB",
"e. c #C8C8C8",
"r. c #CBCBCB",
"t. c #D1D1D1",
"y. c #DADADA",
"u. c #DBDBDB",
"i. c #DCDCDC",
"p. c #DEDEDE",
"a. c #DFDFDF",
"s. c #E1DCE1",
"d. c #E0E0E0",
"f. c #E3E3E3",
"g. c #E5E5E5",
"h. c #E9E9E9",
"j. c #EBEBEB",
"k. c #EEEEEE",
"l. c #F8EDF8",
"z. c #F4E9F4",
"x. c #F0F0F0",
"c. c #F5F5F5",
"v. c #F9F9F9",
"b. c #FDFDFD",
"n. c white",
"m. c #FEFEFE",
/* pixels */
"                                                                                                ",
"            n.n.n.n.n.n.n.n.n.n.n.n.n.n.n.n.j.i.t.w.8.4.2.;.-.=.$.F D D S S S S S 4             ",
"            n.n.n.n.n.n.n.n.n.n.n.n.n.n.n.n.n.n.v.c.x.j.j.g.f.f.i.i.y.y.y.y.y.y.y.x             ",
"            n.n.n.n.n.n.n.n.n.n.n.n.n.n.n.n.n.n.v.c.x.j.j.g.f.f.i.i.y.y.y.y.y.y.y.x             ",
"            n.q.q.0.8.6.4.2.;.:.:.:.=.=.=.=.=.$.$.F F F F F F D D D F $.-.;.3.5.5.x             ",
"            n.>.;.;.. . . . . . . . . . . . . . . . . . . . . . . . . . . &.n.n.n.x             ",
"            n.;.;.;.; t t y y y u u i p p p p n n n p p p p i u u y y t t $.n.n.n.x             ",
"            n.;.;.;.; t t y y y u i i p p p n n n n n p p p p i u u y y t $.n.n.n.x             ",
"            n.;.;.;.; t y y y u u i p p p n n n n n n n n p p i i u y y y $.n.n.n.x             ",
"            n.;.;.;.; y y y u u i p p n n n m m m m m m n n p p i i u y y $.n.n.n.x             ",
"            n.1.;.;.; y u u i i p p n n m m M M N M M M m m n p p p i u u *.n.n.n.x             ",
"            n.>.;.;.: y u u i i p p n n m M N N N N N M M m n n p p i u u &.n.n.n.x             ",
"            n.1.;.;.: u u i i p p n n m M N N B V V N N N M m n n p i i i *.n.n.n.x             ",
"            n.;.;.;.: u i i p p p n n m M N V V V V V N N N m n n p p i i $.n.n.n.z             ",
"            n.1.;.;.: i i i p p n n m M N N V V V V V V N N M m n n p p i *.n.n.n.z             ",
"            n.>.;.;.: i i i p p n n m M N N V V V V V V B N M m n n p p i &.n.n.n.z             ",
"            c.;.;.;.: i i i p p n n m M N N V V V V V V V N M m n n p p i $.n.n.n.z             ",
"            k.>.;.;.: i i i p p n n m M N N V V V V V V N N M m n n p p i &.n.n.n.z             ",
"            g.1.;.;.: u i i p p n n m m N N V V V V V V N N M m n n p i i *.n.n.n.z             ",
"            f.>.;.;.: u i i p p p n n m M N N V V V V N N M m n n p p i i &.n.n.n.z             ",
"            y.;.;.;.: u u u i i p p n n m M N N N N N N M m n n p p i i u $.n.n.n.z             ",
"            t.;.;.;.; y y u u i p p p n n m M M M M M m m n n p p i u u y $.n.n.n.5             ",
"            t.;.;.;.; y y y u u i p p n n n m m m m m m n n p p i i u y y $.n.n.n.5             ",
"            r.;.;.;.; y y y y u i i p p n n n m m m n n n n p p i u y y y $.n.n.n.5             ",
"            w.1.;.;.; t y y y y u i p p p n n n n n n n p p p i i u y y y *.n.n.n.5             ",
"            w.;.;.;.O ; ; ; ; : : : : : : : 3 3 3 3 3 : : : : : : : ; ; ; $.n.n.n.5             ",
"            w.z.k.k.;.:.:.:.=.$.$.F D S S S Z Z Z Z Z S S S D F $.$.-.:.:.s.n.n.n.5             ",
"            w.n.n.n.n.n.n.n.n.n.n.n.n.v.x.k.g.f.i.i.i.i.i.f.g.j.x.c.n.n.n.n.n.n.l.5             ",
"            w.n.n.n.n.n.n.n.n.n.n.n.n.n.n.n.n.n.v.c.x.j.j.j.f.f.i.i.y.y.y.y.y.y.y.5             ",
"            9.n.n.n.n.n.n.n.n.n.n.n.n.n.n.n.n.n.v.c.x.j.j.g.f.f.i.i.y.y.y.y.y.y.y.5             ",
"          + z v v v v v v v v v v v v c c c c x x x z z z z z 5 5 5 5 5 5 5 5 5 5 x             ",
"                  :.&.=.=.-.=.=.$.$.F F D S v c x z 5 4 2 1 1 @ @ @ + + + + +                   ",
"                    w.0.0.0.8.9.9.5.3.2.:.=.F Z v c 5 4 2 1 @ + + X X X X X                     ",
"                              4 l 7 4 4 7 l $ + + # + + # # + X . .                             ",
"                                7 z 4 4 z 7 & + - < + - < % . . . .                             ",
"                                    %.S b C z 6 5 4 1 @ @ + + z                                 ",
"                  q.w.w.w.w.w.q.0.0.8.9.5.4.2.;.:.:.=.$.$.F F D A A D D D F b                   ",
"                  1 8 8 l 7 8 4 7 z 4 4 z 7 7 8 4 4 z 4 4 8 7 4 8 8 4 z 7 4 8                   ",
"#.#.#.#.#.#.#.#.#.#.#.#.#.@.@.@.@.@.+.O.o. .} { ~ ! E I L H G g f d s a e w q q 0 0 0 0 0 0     ",
"#.R R R R R R R R R I I I I I L L P H H H G G G g g f f f d d d s s s s s s r r r r r r r 9     ",
"@.R R R R R R R R R I I I I I L L K K H H H G G g g f f f d d d s s s s ( j ^ ,.` ) r r r ,     ",
"O.R R R R R R R R R I I Y I I L L P K H H H G G g g f f f d d d s s s s s e e e w w 0 w q w w 0 ",
"E W R R R R R R R R R I I I I L P K K H H H G G g g G H G G f g G G d s a d d r r r r r r r r 9 ",
"f R R R R R R R R R R I I I I L } { [ [ ~ } ! ! E L P J G g f d d d s s s s r r r r r r r r r , ",
"q R R R R o.o.o.o.o.+.......| } ! Y L U K H H J G G g g f f f d d d s s s r r r r r r r r r r = ",
"d X.+.X.X.X.Y I I I I I I I I I I L L K K H H G G G g g f f d d d d s T <.) ^ ( ] / ' _ ` k r * ",
"    Q R R R R R R R R R I I I I I L L K H H H G G G g g f f f d d d s s s s r r r r h r r r r * ",
"    0 0 0 0 0 0 0 0 9 9 9 9 9 9 9 9 9 , , , > > > > = = = = * * * * * o o o o o o o o o o o o o "
};
